<?xml version="1.0" encoding="UTF-8"?>
<svg xmlns="http://www.w3.org/2000/svg" viewBox="0 0 100 100">
  <defs>
    <linearGradient id="grad" x1="0%" y1="0%" x2="100%" y2="100%">
      <stop offset="0%" stop-color="#0ea5e9"/>
      <stop offset="100%" stop-color="#10b981"/>
    </linearGradient>
  </defs>
  <circle cx="50" cy="50" r="50" fill="url(#grad)"/>
  <g transform="translate(29.13,21) scale(0.06049)">
    <path fill="#ffffff" d="M334,688.96c-17.18-6.08-26.19-24.93-20.11-42.11,6.08-17.18,24.93-26.19,42.11-20.11s26.19,24.93,20.11,42.11c-3.32,9.4-10.71,16.79-20.11,20.11v270c37.18-171.17,165.54-307.99,334-356v-265h-226v85h140v119c-65.59,27.86-125.32,67.9-176,118l3-577c97,13,185,48,259,99v-93C559.07,15.46,407.86-13.66,259,5.96,166,16.96,78,44.96,0,88.96v93c74-51,162-86,259-99l3,577-3-3c-71.54-69.31-160.25-118.32-257-142l-2-1v89l2,1c166.71,49.6,293.66,185.34,332,355"/>
  </g>
</svg>
